<svg width="590" height="904" viewBox="0 0 590 904" fill="none" xmlns="http://www.w3.org/2000/svg">
<path d="M127.962 166.335C44.3623 146.735 289.962 -53.6652 -7.03772 13.8347C-304.038 81.3347 -248.038 465.335 -189.038 552.335C-130.038 639.335 -136.538 812.335 -57.0376 859.835C22.4624 907.335 137.962 928.835 310.462 859.835C482.962 790.835 565.838 601.603 583.962 542.835C600.462 489.335 579.969 439.369 540.462 406.835C497.962 371.835 438.462 351.335 363.962 378.335C322.462 393.375 217.462 492.835 211.462 432.335C208.497 402.44 254.762 394.252 281.462 378.335C333.462 347.335 338.962 295.335 310.462 240.335C281.962 185.335 232.462 190.835 127.962 166.335Z" fill="#FAB360"/>
</svg>
