<svg width="690" height="765" viewBox="0 0 690 765" fill="none" xmlns="http://www.w3.org/2000/svg">
<path d="M143.5 7.59222C62.3 -21.6078 -14.6667 40.4255 -43 75.0922L-91 781.592L688.5 821.092C690.5 805.925 688.8 768.292 666 739.092C637.5 702.592 563.302 696.764 479.5 739.092C283.5 838.092 289 729.867 320 712.592C385.5 676.092 398.253 680.998 417.5 648.092C479.5 542.092 409.662 465.092 256.5 465.092C166 465.092 135.5 476.092 118.5 428.592C85.3728 336.031 229 290.592 256.5 216.592C281.661 148.886 245 44.0922 143.5 7.59222Z" fill="#FAB360"/>
</svg>
