<svg width="694" height="577" viewBox="0 0 694 577" fill="none" xmlns="http://www.w3.org/2000/svg">
<path d="M714.5 47C745.7 69.8 789 137 776 172.5V289C776 374 767.1 440 763.5 446C759 453.5 664.5 510.5 590.5 466.5C516.5 422.5 567 481 535.5 481C504 481 465 463.5 447.5 510.5C430 557.5 315.5 599 252.5 562.5C189.5 526 295 413 227.5 385C160 357 53.0003 389.5 15.5003 361.5C-21.9997 333.5 20 240 64 193C108 146 190.737 150.782 252.5 193C292 220 421.305 215.887 466.5 172.5C504 136.5 507 83 556 26.5C605 -30 675.5 18.5 714.5 47Z" fill="#FAB360"/>
</svg>
