<svg width="494" height="797" viewBox="0 0 494 797" fill="none" xmlns="http://www.w3.org/2000/svg">
<path d="M516.5 0.5C517.293 5.74483 517.84 11.7365 518.023 18.2671C539.031 267.009 566.092 740.842 516.5 779.5C453 829 391.5 764 325.5 696C259.5 628 208.5 692.5 141 712C73.5 731.5 -9.99997 634.5 2.00003 521.5C14 408.5 103 434 194.5 398C286 362 202.5 330.5 208.5 245C214.5 159.5 306 201.5 421 165.5C501.779 140.213 519.341 65.2776 518.023 18.2671C517.511 12.208 517.003 6.28243 516.5 0.5Z" fill="#72C4E8"/>
</svg>
