<svg width="105" height="105" viewBox="0 0 105 105" fill="none" xmlns="http://www.w3.org/2000/svg">
<path fill-rule="evenodd" clip-rule="evenodd" d="M13.5601 35.4404C10.6251 33.7723 8.25457 31.2527 6.77046 28.2245C5.28656 25.1966 4.76338 21.8131 5.26153 18.5338C5.75954 15.2554 7.25429 12.2367 9.53838 9.88103C11.8225 7.52537 14.7923 5.93951 18.0512 5.34246C21.3109 4.74525 24.7057 5.16603 27.7745 6.55834C30.8438 7.95085 33.4325 10.2454 35.1877 13.1308C36.9428 16.0159 37.7758 19.3457 37.583 22.6662C37.503 24.0446 38.5556 25.2268 39.934 25.3068C41.3124 25.3868 42.4946 24.3343 42.5746 22.9559C42.8268 18.6107 41.7363 14.2752 39.4595 10.5323C37.1829 6.7897 33.826 3.81332 29.8403 2.00505C25.8542 0.196559 21.425 -0.358878 17.1501 0.424316C12.8744 1.20766 8.96252 3.2922 5.94872 6.40047C2.93494 9.50871 0.971309 13.4838 0.318241 17.7829C-0.334698 22.0812 0.353884 26.4934 2.28067 30.4249C4.20726 34.3559 7.28178 37.6233 11.0896 39.7874C14.8978 41.9516 19.2625 42.9115 23.5964 42.5278C24.9717 42.406 25.9879 41.1924 25.8661 39.8171C25.7444 38.4417 24.5307 37.4255 23.1554 37.5473C19.8453 37.8403 16.4948 37.1082 13.5601 35.4404ZM59.8507 68.6068C58.1829 67.356 48.4711 65.977 43.4677 69.9797L35.1913 78.2561L34.3325 83.1222C34.4645 86.6805 33.1723 90.2818 30.4558 92.9983C25.2747 98.1795 16.8743 98.1795 11.6931 92.9983C6.51195 87.8171 6.51195 79.4168 11.6931 74.2356C14.4098 71.5189 18.0114 70.2267 21.5701 70.3589L26.4352 69.5004L34.7119 61.2236C38.7145 56.2202 37.3355 46.5085 36.0847 44.8407L36.0847 44.8407L26.4353 35.1913L21.5699 34.3327C18.0113 34.4648 14.4097 33.1726 11.6931 30.456C6.51196 25.2748 6.51196 16.8745 11.6931 11.6933C16.8743 6.51211 25.2747 6.51212 30.4558 11.6933C33.1723 14.4098 34.4646 18.0112 34.3325 21.5696L35.1912 26.4353L44.8415 36.0856C46.5119 37.3363 56.0989 38.836 61.1014 34.8341L69.5001 26.4354L70.3588 21.5696C70.2268 18.0111 71.519 14.4097 74.2355 11.6932C79.4167 6.51205 87.817 6.51206 92.9982 11.6932C98.1794 16.8744 98.1794 25.2748 92.9982 30.4559C90.2817 33.1724 86.6804 34.4646 83.122 34.3326L78.256 35.1914L69.8575 43.5899C65.8552 48.5927 67.3555 58.181 68.6062 59.8503L78.2562 69.5003L83.1219 70.359C86.6803 70.2269 90.2817 71.5192 92.9982 74.2357C98.1794 79.4168 98.1794 87.8172 92.9982 92.9984C87.817 98.1795 79.4167 98.1795 74.2355 92.9984C71.519 90.2819 70.2268 86.6805 70.3588 83.1222L69.5001 78.2561L59.8508 68.6068L59.8507 68.6068ZM69.2511 13.5601C70.9191 10.6251 73.4388 8.25463 76.467 6.77052C79.4948 5.28662 82.8783 4.76344 86.1576 5.26159C89.436 5.75961 92.4547 7.25435 94.8104 9.53844C97.1661 11.8225 98.7519 14.7923 99.349 18.0512C99.9462 21.311 99.5254 24.7058 98.1331 27.7746C96.7406 30.8439 94.4461 33.4326 91.5606 35.1878C88.6755 36.9428 85.3458 37.7758 82.0253 37.5831C80.6469 37.5031 79.4646 38.5557 79.3846 39.9341C79.3046 41.3124 80.3572 42.4947 81.7356 42.5747C86.0807 42.8269 90.4163 41.7363 94.1591 39.4595C97.9017 37.1829 100.878 33.8261 102.686 29.8404C104.495 25.8543 105.05 21.4251 104.267 17.1502C103.484 12.8744 101.399 8.96258 98.291 5.94879C95.1827 2.93501 91.2077 0.971374 86.9085 0.318299C82.6102 -0.334636 78.1981 0.353945 74.2666 2.28073C70.3355 4.20732 67.0681 7.28184 64.9041 11.0897C62.7398 14.8978 61.7799 19.2625 62.1636 23.5964C62.2854 24.9717 63.499 25.988 64.8744 25.8662C66.2497 25.7444 67.2659 24.5308 67.1442 23.1555C66.8511 19.8453 67.5833 16.4948 69.2511 13.5601ZM7.22613 76.0285C8.85028 72.8397 11.3853 70.1529 14.4841 68.3388C17.5824 66.525 21.0715 65.6839 24.4694 65.8981C25.8474 65.9849 27.0349 64.9383 27.1218 63.5603C27.2086 62.1823 26.162 60.9948 24.784 60.908C20.3546 60.6287 15.8809 61.7273 11.9581 64.0238C8.03578 66.32 4.83018 69.7158 2.77075 73.7592C0.710905 77.8035 -0.11354 82.323 0.443075 86.7141C1.00013 91.1087 2.91429 95.1561 5.94739 98.2894C8.98062 101.423 12.9611 103.464 17.3309 104.156C21.6971 104.847 26.2328 104.158 30.3308 102.216C34.4278 100.275 37.9117 97.1661 40.32 93.308C42.7286 89.4494 43.9587 85.0041 43.8146 80.5622C43.7698 79.1822 42.6148 78.0998 41.2348 78.1446C39.8549 78.1894 38.7725 79.3444 38.8172 80.7244C38.928 84.1382 37.9822 87.6105 36.0785 90.6604C34.1744 93.7109 31.4177 96.1682 28.1898 97.6977C24.9629 99.2266 21.443 99.7449 18.1127 99.2176C14.7859 98.691 11.8001 97.1467 9.53988 94.8118C7.27948 92.4767 5.82829 89.4374 5.40338 86.0853C4.97803 82.7297 5.60239 79.2165 7.22613 76.0285ZM76.467 97.9209C73.4388 96.4368 70.9191 94.0663 69.2511 91.1313C67.5833 88.1966 66.8511 84.8461 67.1442 81.5359C67.2659 80.1606 66.2497 78.947 64.8744 78.8252C63.499 78.7034 62.2854 79.7197 62.1636 81.095C61.7799 85.4289 62.7398 89.7936 64.9041 93.6017C67.0681 97.4096 70.3355 100.484 74.2666 102.411C78.1981 104.337 82.6102 105.026 86.9085 104.373C91.2077 103.72 95.1827 101.756 98.291 98.7426C101.399 95.7288 103.484 91.817 104.267 87.5412C105.05 83.2663 104.495 78.8371 102.686 74.851C100.878 70.8653 97.9017 67.5085 94.1591 65.2319C90.4163 62.9551 86.0807 61.8645 81.7356 62.1167C80.3572 62.1967 79.3046 63.379 79.3846 64.7574C79.4646 66.1357 80.6469 67.1883 82.0253 67.1083C85.3458 66.9156 88.6755 67.7486 91.5606 69.5036C94.4461 71.2588 96.7406 73.8475 98.1331 76.9168C99.5254 79.9856 99.9462 83.3804 99.349 86.6402C98.7519 89.8991 97.1661 92.8689 94.8104 95.153C92.4547 97.4371 89.436 98.9318 86.1576 99.4298C82.8783 99.928 79.4948 99.4048 76.467 97.9209Z" fill="white"/>
</svg>
